<svg version="1.1" id="Layer_1" xmlns="http://www.w3.org/2000/svg" xmlns:xlink="http://www.w3.org/1999/xlink" x="0px" y="0px"
	 width="100%" viewBox="0 0 415 1171" enable-background="new 0 0 415 1171" xml:space="preserve">
<path fill="#FFFFFF" opacity="1.000000" stroke="none" 
	d="
M1.000000,427.000000 
	C1.000000,284.666656 1.000000,142.833328 1.000000,1.000000 
	C139.333328,1.000000 277.666656,1.000000 416.000000,1.000000 
	C416.000000,391.333344 416.000000,781.666687 416.000000,1172.000000 
	C277.666656,1172.000000 139.333328,1172.000000 1.000000,1172.000000 
	C1.000000,923.833313 1.000000,675.666687 1.000000,427.000000 
M16.075241,39.919552 
	C16.063593,42.276485 16.051943,44.633423 15.404762,47.542545 
	C15.269924,49.187126 15.017005,50.831703 15.016927,52.476288 
	C14.999722,413.590637 15.000271,774.704956 15.000256,1135.819336 
	C15.000256,1137.738403 15.000258,1139.657593 15.000258,1141.891602 
	C32.804054,1141.891602 49.771725,1141.897095 66.739304,1141.859863 
	C67.158157,1141.858887 67.575974,1141.385132 68.932297,1141.135498 
	C71.259819,1141.212769 73.587334,1141.357422 75.914856,1141.357544 
	C153.964249,1141.365601 232.013657,1141.371704 310.063049,1141.343018 
	C321.708862,1141.338745 333.354614,1141.160767 345.592102,1141.651489 
	C362.518066,1141.651489 379.444031,1141.651489 396.998505,1141.651489 
	C396.998505,1139.097778 396.998505,1136.812256 396.998505,1134.526855 
	C396.998505,774.249695 396.998871,413.972534 396.990692,53.695354 
	C396.990631,51.365231 396.872040,49.035103 396.800079,45.877220 
	C396.932556,41.497208 397.322693,36.005684 391.667694,35.671234 
	C382.173553,35.109718 372.594482,35.984425 362.571014,35.538807 
	C361.106995,35.359509 359.642975,35.023605 358.178925,35.023251 
	C257.073975,34.998646 155.969040,34.994465 54.864124,35.057491 
	C53.216263,35.058517 51.568928,35.907753 49.132614,36.079868 
	C42.704803,35.788719 36.276989,35.285225 29.849182,35.285389 
	C25.941248,35.285488 22.033333,36.063087 17.850414,35.795197 
	C17.025644,35.776089 16.200874,35.756981 15.376103,35.737869 
	C15.633365,36.837940 15.890625,37.938015 16.075241,39.919552 
z"/>
<path fill="#DCDCDC" opacity="1.000000" stroke="none" 
	d="
M67.994286,1141.131958 
	C67.575974,1141.385132 67.158157,1141.858887 66.739304,1141.859863 
	C49.771725,1141.897095 32.804054,1141.891602 15.000258,1141.891602 
	C15.000258,1139.657593 15.000256,1137.738403 15.000256,1135.819336 
	C15.000271,774.704956 14.999722,413.590637 15.016927,52.476288 
	C15.017005,50.831703 15.269924,49.187126 16.105976,47.279129 
	C20.429064,48.320904 24.050940,49.626091 26.791040,50.613518 
	C27.357086,54.308430 27.206821,57.573971 28.389002,60.251129 
	C31.990067,68.406090 35.585388,76.648727 40.187115,84.249268 
	C43.759155,90.149094 49.186909,94.510147 57.052551,94.294266 
	C57.070210,112.991615 57.026054,131.211212 56.602852,149.316315 
	C53.139549,149.235687 51.839794,150.765518 51.908768,153.867157 
	C52.026184,159.147308 51.988903,164.433044 51.905117,169.714661 
	C51.859276,172.604202 53.157845,173.995865 56.336807,174.272522 
	C57.129330,178.681732 57.594410,182.830215 57.753357,187.267975 
	C57.353622,195.106308 57.260029,202.655380 57.164368,210.585159 
	C57.108078,211.979309 57.053860,212.992737 56.656860,214.057037 
	C51.229225,216.758469 49.020176,221.000793 49.028019,226.677521 
	C49.069332,256.589386 49.034771,286.501373 49.049858,316.413300 
	C49.052795,322.232483 51.320164,326.676910 57.042076,329.393921 
	C57.130028,368.494720 57.174015,407.123352 57.153198,446.238586 
	C57.093250,454.526062 57.098114,462.326874 57.109772,470.588257 
	C57.114529,546.581421 57.109383,622.114014 57.121876,697.646667 
	C57.122372,700.636475 57.290791,703.626282 57.266506,707.109131 
	C57.151741,715.128296 57.151428,722.654358 57.146122,730.637573 
	C57.093842,754.732117 57.046555,778.369507 56.668335,802.098755 
	C51.633907,804.610840 49.076572,808.457397 49.069691,813.752136 
	C49.030167,844.160583 49.021828,874.569153 49.076748,904.977478 
	C49.086914,910.605652 51.551800,914.830566 57.033195,917.446045 
	C57.075569,933.906189 57.084148,949.897217 57.057194,966.366394 
	C57.050198,974.604248 57.078739,982.364014 57.112373,990.487671 
	C57.215000,991.570374 57.312534,992.289185 57.314964,993.466064 
	C57.189335,1029.963623 57.149323,1066.003052 57.140774,1102.042480 
	C57.139751,1106.353516 57.309868,1110.664551 57.295971,1115.433105 
	C57.161213,1119.056274 56.930233,1122.235352 57.143387,1125.384644 
	C57.571320,1131.706787 59.543018,1137.159424 66.529068,1139.624023 
	C67.170601,1140.265259 67.582443,1140.698608 67.994286,1141.131958 
z"/>
<path fill="#DBDBDB" opacity="1.000000" stroke="none" 
	d="
M396.808807,46.704983 
	C396.872040,49.035103 396.990631,51.365231 396.990692,53.695354 
	C396.998871,413.972534 396.998505,774.249695 396.998505,1134.526855 
	C396.998505,1136.812256 396.998505,1139.097778 396.998505,1141.651489 
	C379.444031,1141.651489 362.518066,1141.651489 345.475128,1141.069458 
	C352.448425,1137.106201 355.304474,1131.554810 355.234955,1123.662476 
	C354.999359,1096.907349 355.169403,1070.148682 355.139679,1043.391357 
	C355.119904,1025.611938 355.023712,1007.832520 354.978455,989.626099 
	C354.895386,985.034302 354.795593,980.869568 354.765839,976.390564 
	C354.861420,974.437805 354.886902,972.799377 354.941589,970.733093 
	C354.984985,968.877502 354.999146,967.449768 355.066772,965.554321 
	C355.084839,949.105469 355.049438,933.124268 355.366821,917.105286 
	C362.090668,914.499390 363.835083,909.307251 363.826416,903.015930 
	C363.786438,874.034973 363.834564,845.053772 363.702850,816.073364 
	C363.690582,813.372559 362.637268,810.676514 362.027527,807.686890 
	C361.634491,806.942322 361.281219,806.489014 360.839783,805.712158 
	C358.752045,803.675842 356.752472,801.963074 354.890564,799.782776 
	C355.008057,776.224731 354.987915,753.134155 354.986206,729.617371 
	C354.883392,725.016479 354.762146,720.841919 354.748962,716.290161 
	C354.870056,714.334595 354.883148,712.756104 354.927948,710.743896 
	C354.962372,708.858948 354.965057,707.407776 355.017517,705.492798 
	C355.092621,629.202087 355.119690,553.375244 355.135284,477.548370 
	C355.135803,475.052032 355.019287,472.555725 354.975555,469.631897 
	C354.893524,465.037811 354.793274,460.871246 354.762024,456.390137 
	C354.857422,454.438202 354.883820,452.800842 354.939148,450.734924 
	C354.981628,448.875824 354.995209,447.445251 355.062073,445.547485 
	C355.126465,408.306702 355.125427,371.533142 355.182587,334.759674 
	C355.185608,332.817200 355.681305,330.875488 356.265381,328.820251 
	C358.223389,327.182190 359.863617,325.657257 361.742096,323.878479 
	C362.579193,320.574524 363.684723,317.526611 363.698059,314.473938 
	C363.822357,286.077728 363.773041,257.680664 363.720764,229.283951 
	C363.716888,227.180588 363.300262,225.077972 363.076355,222.606506 
	C361.889557,217.987686 359.554413,214.842224 355.092346,213.470200 
	C355.117096,212.081573 355.041962,211.063416 354.985382,209.618805 
	C354.882965,205.017303 354.761932,200.842239 354.748901,196.290131 
	C354.869629,194.335129 354.882324,192.757141 354.926483,190.745926 
	C354.963470,188.863800 354.968994,187.414917 355.023560,185.513977 
	C355.048920,181.467438 355.025177,177.872955 355.400085,174.210663 
	C359.993317,173.885040 361.200348,171.528000 360.941071,167.566437 
	C360.650513,163.127533 360.840118,158.655014 360.876923,154.197571 
	C360.904663,150.840179 359.379303,149.349304 355.878601,149.663300 
	C355.409637,149.292175 355.064728,149.175049 354.736755,148.586395 
	C354.723724,133.807449 354.693787,119.500000 354.842102,104.749359 
	C355.015778,100.817070 355.011139,97.327995 355.431671,93.866035 
	C363.853638,94.428741 369.061188,89.854256 372.760590,83.705650 
	C376.327606,77.777069 379.225525,71.401779 381.941132,65.020081 
	C383.847565,60.539856 384.955109,55.719673 386.694214,50.175278 
	C389.135010,49.337841 392.971924,48.021416 396.808807,46.704983 
z"/>
<path fill="#DCDCDC" opacity="1.000000" stroke="none" 
	d="
M49.921349,36.361168 
	C51.568928,35.907753 53.216263,35.058517 54.864124,35.057491 
	C155.969040,34.994465 257.073975,34.998646 358.178925,35.023251 
	C359.642975,35.023605 361.106995,35.359509 362.647186,36.199600 
	C361.735809,40.016846 360.748260,43.173294 359.768646,46.304424 
	C364.032745,47.828796 367.166351,49.505596 370.473053,49.982914 
	C374.173401,50.517056 375.245575,52.375065 374.184967,55.343616 
	C371.435272,63.039799 368.335999,70.611092 365.376282,78.232239 
	C361.039856,77.932915 357.082092,72.958900 354.938477,79.075516 
	C351.941040,71.981468 347.129425,68.022804 339.538971,68.024323 
	C297.393768,68.032761 255.248550,68.060051 212.632141,68.041748 
	C208.083328,68.019241 204.005737,68.035873 199.464050,68.047501 
	C157.803238,68.038269 116.606300,68.103951 75.410088,67.961006 
	C68.541397,67.937172 63.100090,69.924294 59.222820,75.750595 
	C58.784927,76.408600 57.709511,76.642357 56.631721,76.877441 
	C53.638462,76.900505 50.943207,77.118958 47.113319,77.429375 
	C44.350578,70.700233 41.135838,63.447437 38.515709,55.985847 
	C38.010902,54.548256 39.329327,51.301167 40.686066,50.606602 
	C44.226620,48.794052 48.254730,47.933868 53.051666,46.382336 
	C51.917007,42.749931 50.919178,39.555550 49.921349,36.361168 
z"/>
<path fill="#808184" opacity="1.000000" stroke="none" 
	d="
M354.961731,990.053101 
	C355.023712,1007.832520 355.119904,1025.611938 355.139679,1043.391357 
	C355.169403,1070.148682 354.999359,1096.907349 355.234955,1123.662476 
	C355.304474,1131.554810 352.448425,1137.106201 345.179260,1140.775269 
	C333.354614,1141.160767 321.708862,1141.338745 310.063049,1141.343018 
	C232.013657,1141.371704 153.964249,1141.365601 75.914856,1141.357544 
	C73.587334,1141.357422 71.259819,1141.212769 68.463295,1141.133789 
	C67.582443,1140.698608 67.170601,1140.265259 66.902184,1139.417358 
	C68.029190,1137.019775 69.012764,1135.036865 70.394394,1133.076904 
	C79.862228,1134.067505 88.932007,1135.035034 98.295456,1136.299561 
	C99.899094,1136.731079 101.209045,1136.982788 102.519058,1136.983154 
	C171.448273,1137.002197 240.377502,1137.006470 309.306671,1136.958618 
	C310.868896,1136.957520 312.430664,1136.342041 314.453827,1135.971436 
	C325.312836,1135.668457 335.731903,1135.531616 345.517517,1131.686890 
	C345.463470,1131.140869 345.409424,1130.594727 345.355377,1130.048706 
	C252.614273,1130.048706 159.873184,1130.048706 66.838226,1129.821533 
	C66.598267,1127.042358 63.443134,1124.255249 67.418968,1122.117920 
	C70.318619,1123.506836 72.845924,1125.661743 75.495300,1125.823975 
	C86.942757,1126.525391 98.425957,1126.643188 110.118256,1126.897949 
	C110.633308,1126.675415 110.842209,1126.450317 111.433128,1126.076904 
	C185.483429,1126.001831 259.067688,1125.993286 332.651947,1125.996704 
	C343.208008,1125.997192 346.526184,1123.479980 348.729065,1113.399902 
	C349.112793,1111.643921 348.992035,1109.763550 348.994080,1107.940430 
	C349.038513,1068.318970 349.067261,1028.697632 349.454559,989.190063 
	C351.527283,989.553711 353.244507,989.803406 354.961731,990.053101 
M262.500000,1138.000000 
	C209.106796,1138.000000 155.713577,1138.000000 102.320366,1138.000000 
	C102.321594,1138.237549 102.322815,1138.475220 102.324043,1138.712769 
	C171.508423,1138.712769 240.692810,1138.712769 309.877197,1138.712769 
	C309.878204,1138.475220 309.879211,1138.237549 309.880249,1138.000000 
	C294.420166,1138.000000 278.960083,1138.000000 262.500000,1138.000000 
z"/>
<path fill="#262424" opacity="1.000000" stroke="none" 
	d="
M355.222961,79.314529 
	C357.082092,72.958900 361.039856,77.932915 365.376282,78.232239 
	C368.335999,70.611092 371.435272,63.039799 374.184967,55.343616 
	C375.245575,52.375065 374.173401,50.517056 370.473053,49.982914 
	C367.166351,49.505596 364.032745,47.828796 359.768646,46.304424 
	C360.748260,43.173294 361.735809,40.016846 362.887268,36.557621 
	C372.594482,35.984425 382.173553,35.109718 391.667694,35.671234 
	C397.322693,36.005684 396.932556,41.497208 396.804443,46.291103 
	C392.971924,48.021416 389.135010,49.337841 386.694214,50.175278 
	C384.955109,55.719673 383.847565,60.539856 381.941132,65.020081 
	C379.225525,71.401779 376.327606,77.777069 372.760590,83.705650 
	C369.061188,89.854256 363.853638,94.428741 355.514709,93.419098 
	C355.189362,88.401535 355.206177,83.858032 355.222961,79.314529 
z"/>
<path fill="#252324" opacity="1.000000" stroke="none" 
	d="
M49.526981,36.220520 
	C50.919178,39.555550 51.917007,42.749931 53.051666,46.382336 
	C48.254730,47.933868 44.226620,48.794052 40.686066,50.606602 
	C39.329327,51.301167 38.010902,54.548256 38.515709,55.985847 
	C41.135838,63.447437 44.350578,70.700233 47.113319,77.429375 
	C50.943207,77.118958 53.638462,76.900505 56.617584,77.340179 
	C56.931210,83.271042 56.960972,88.543777 56.990734,93.816513 
	C49.186909,94.510147 43.759155,90.149094 40.187115,84.249268 
	C35.585388,76.648727 31.990067,68.406090 28.389002,60.251129 
	C27.206821,57.573971 27.357086,54.308430 26.791040,50.613518 
	C24.050940,49.626091 20.429064,48.320904 16.423740,47.003036 
	C16.051943,44.633423 16.063593,42.276485 16.369209,39.373070 
	C17.150587,38.048203 17.637999,37.269814 18.125408,36.491425 
	C22.033333,36.063087 25.941248,35.285488 29.849182,35.285389 
	C36.276989,35.285225 42.704803,35.788719 49.526981,36.220520 
z"/>
<path fill="#DCDCDC" opacity="1.000000" stroke="none" 
	d="
M17.987911,36.143311 
	C17.637999,37.269814 17.150587,38.048203 16.405533,38.932339 
	C15.890625,37.938015 15.633365,36.837940 15.376103,35.737869 
	C16.200874,35.756981 17.025644,35.776089 17.987911,36.143311 
z"/>
<path fill="#838488" opacity="1.000000" stroke="none" 
	d="
M56.999268,802.006897 
	C57.046555,778.369507 57.093842,754.732117 57.564514,730.573853 
	C59.541901,729.912109 61.095890,729.771240 63.151554,729.584839 
	C62.743286,722.930237 62.665436,716.823486 61.801266,710.830139 
	C61.572845,709.245911 58.920361,708.011230 57.380959,706.616089 
	C57.290791,703.626282 57.122372,700.636475 57.121876,697.646667 
	C57.109383,622.114014 57.114529,546.581421 57.499176,470.536072 
	C59.568573,469.682648 61.255356,469.341949 63.168037,468.999786 
	C63.393929,468.998322 63.845711,468.995270 63.916374,469.459747 
	C63.996548,618.972961 64.013115,768.021667 64.008575,917.070374 
	C64.007828,941.714966 63.914745,966.359558 63.647728,990.848877 
	C63.255711,990.388184 63.080303,990.082825 62.894402,989.329956 
	C62.881603,983.928467 62.960354,978.972778 62.851276,974.021179 
	C62.764645,970.088684 61.379997,966.921021 57.092731,965.888245 
	C57.084148,949.897217 57.075569,933.906189 57.081177,916.980713 
	C57.063332,878.033203 57.031300,840.020020 56.999268,802.006897 
z"/>
<path fill="#808185" opacity="1.000000" stroke="none" 
	d="
M63.845711,468.995270 
	C63.845711,468.995270 63.393929,468.998322 63.140060,468.531982 
	C62.880791,463.637390 62.631432,459.192169 62.937176,454.785522 
	C63.256195,450.187500 61.562332,447.221466 57.218006,445.751984 
	C57.174015,407.123352 57.130028,368.494720 57.079010,328.931519 
	C57.047871,290.000000 57.023762,252.003098 56.999649,214.006180 
	C57.053860,212.992737 57.108078,211.979309 57.582207,210.521301 
	C59.452274,209.962372 60.902431,209.848038 63.194641,209.667297 
	C62.816628,203.329895 62.707226,197.238770 61.922222,191.236008 
	C61.718113,189.675201 59.404301,188.390320 58.059494,186.978699 
	C57.594410,182.830215 57.129330,178.681732 56.430401,173.866318 
	C56.458336,165.276535 56.720116,157.353668 56.981895,149.430817 
	C57.026054,131.211212 57.070210,112.991615 57.052551,94.294266 
	C56.960972,88.543777 56.931210,83.271042 56.915588,77.535576 
	C57.709511,76.642357 58.784927,76.408600 59.222820,75.750595 
	C63.100090,69.924294 68.541397,67.937172 75.410088,67.961006 
	C116.606300,68.103951 157.803238,68.038269 199.446716,68.421600 
	C199.626633,70.780823 199.359787,72.760925 198.623123,74.659195 
	C175.019012,74.705971 151.884857,74.867737 128.750397,74.952332 
	C111.439728,75.015617 94.128525,74.939133 76.817886,75.006439 
	C69.419418,75.035210 65.218330,78.111862 65.045456,83.680984 
	C64.834084,90.490005 64.894386,97.307457 64.592484,104.123230 
	C64.347740,104.125191 63.881935,103.974792 63.567215,103.815826 
	C62.884956,102.525482 62.517422,101.394096 62.149887,100.262711 
	C61.658997,100.231926 61.168106,100.201149 60.677216,100.170372 
	C60.107231,102.749580 59.080479,105.322418 59.044338,107.909088 
	C58.863560,120.847885 58.937229,133.790314 58.932102,146.731461 
	C58.929077,154.363388 58.741226,162.003799 59.056328,169.623016 
	C59.179287,172.596146 58.616562,176.720520 63.809200,177.317810 
	C63.964966,243.049667 64.003113,308.321686 63.994289,373.593719 
	C63.989990,405.394226 63.898003,437.194763 63.845711,468.995270 
z"/>
<path fill="#232122" opacity="1.000000" stroke="none" 
	d="
M56.668335,802.098755 
	C57.031300,840.020020 57.063332,878.033203 57.047382,916.511597 
	C51.551800,914.830566 49.086914,910.605652 49.076748,904.977478 
	C49.021828,874.569153 49.030167,844.160583 49.069691,813.752136 
	C49.076572,808.457397 51.633907,804.610840 56.668335,802.098755 
z"/>
<path fill="#232122" opacity="1.000000" stroke="none" 
	d="
M56.656864,214.057037 
	C57.023762,252.003098 57.047871,290.000000 57.035049,328.459320 
	C51.320164,326.676910 49.052795,322.232483 49.049858,316.413300 
	C49.034771,286.501373 49.069332,256.589386 49.028019,226.677521 
	C49.020176,221.000793 51.229225,216.758469 56.656864,214.057037 
z"/>
<path fill="#808184" opacity="1.000000" stroke="none" 
	d="
M62.904907,989.777466 
	C63.080303,990.082825 63.255711,990.388184 63.702221,991.221130 
	C63.929497,992.497253 63.885674,993.245789 63.429787,993.999268 
	C62.013245,995.127441 60.135754,996.247009 60.130924,997.374573 
	C59.976685,1033.401733 60.031624,1069.429932 59.952221,1105.457520 
	C59.945618,1108.454102 61.226738,1109.271729 63.902527,1109.335449 
	C63.920696,1110.108765 63.881779,1110.552124 63.460709,1110.999023 
	C62.042286,1111.760986 61.016750,1112.534668 59.966309,1113.272827 
	C59.126797,1113.862793 58.257008,1114.409668 57.400658,1114.975586 
	C57.309868,1110.664551 57.139751,1106.353516 57.140774,1102.042480 
	C57.149323,1066.003052 57.189335,1029.963623 57.608639,993.411133 
	C58.666904,991.982422 59.336391,991.066772 60.369698,990.110718 
	C61.457317,989.972656 62.181114,989.875061 62.904907,989.777466 
z"/>
<path fill="#838488" opacity="1.000000" stroke="none" 
	d="
M57.295971,1115.433105 
	C58.257008,1114.409668 59.126797,1113.862793 59.966309,1113.272827 
	C61.016750,1112.534668 62.042286,1111.760986 63.530144,1111.407227 
	C65.022087,1115.197021 66.062439,1118.582031 67.102791,1121.967163 
	C63.443134,1124.255249 66.598267,1127.042358 66.811646,1130.155273 
	C68.051399,1131.495361 69.023865,1132.274536 69.996338,1133.053833 
	C69.012764,1135.036865 68.029190,1137.019775 66.672501,1139.209473 
	C59.543018,1137.159424 57.571320,1131.706787 57.143387,1125.384644 
	C56.930233,1122.235352 57.161213,1119.056274 57.295971,1115.433105 
M60.829494,1125.241699 
	C60.765717,1125.991455 60.701939,1126.741211 60.540195,1128.642700 
	C61.829735,1126.722778 62.515579,1125.890869 62.958851,1124.945435 
	C63.128529,1124.583618 62.743671,1123.961670 62.611465,1123.458252 
	C62.069599,1123.845337 61.527733,1124.232544 60.829494,1125.241699 
z"/>
<path fill="#BCBDC1" opacity="1.000000" stroke="none" 
	d="
M57.153198,446.238586 
	C61.562332,447.221466 63.256195,450.187500 62.937176,454.785522 
	C62.631432,459.192169 62.880791,463.637390 62.914165,468.533447 
	C61.255356,469.341949 59.568573,469.682648 57.492378,470.075531 
	C57.098114,462.326874 57.093250,454.526062 57.153198,446.238586 
z"/>
<path fill="#BCBDC1" opacity="1.000000" stroke="none" 
	d="
M62.894405,989.329956 
	C62.181114,989.875061 61.457317,989.972656 60.009476,990.046509 
	C58.559380,990.056396 57.833332,990.090088 57.107281,990.123718 
	C57.078739,982.364014 57.050198,974.604248 57.057194,966.366394 
	C61.379997,966.921021 62.764645,970.088684 62.851276,974.021179 
	C62.960354,978.972778 62.881603,983.928467 62.894405,989.329956 
z"/>
<path fill="#BCBDC1" opacity="1.000000" stroke="none" 
	d="
M57.753357,187.267975 
	C59.404301,188.390320 61.718113,189.675201 61.922222,191.236008 
	C62.707226,197.238770 62.816628,203.329895 63.194641,209.667297 
	C60.902431,209.848038 59.452274,209.962372 57.584274,210.140594 
	C57.260029,202.655380 57.353622,195.106308 57.753357,187.267975 
z"/>
<path fill="#BCBDC1" opacity="1.000000" stroke="none" 
	d="
M57.266502,707.109131 
	C58.920361,708.011230 61.572845,709.245911 61.801266,710.830139 
	C62.665436,716.823486 62.743286,722.930237 63.151554,729.584839 
	C61.095890,729.771240 59.541901,729.912109 57.569511,730.116760 
	C57.151428,722.654358 57.151741,715.128296 57.266502,707.109131 
z"/>
<path fill="#3A3B3D" opacity="1.000000" stroke="none" 
	d="
M56.602852,149.316315 
	C56.720116,157.353668 56.458336,165.276535 56.102962,173.605591 
	C53.157845,173.995865 51.859276,172.604202 51.905117,169.714661 
	C51.988903,164.433044 52.026184,159.147308 51.908768,153.867157 
	C51.839794,150.765518 53.139549,149.235687 56.602852,149.316315 
z"/>
<path fill="#838488" opacity="1.000000" stroke="none" 
	d="
M57.112373,990.487671 
	C57.833332,990.090088 58.559380,990.056396 59.645653,990.086914 
	C59.336391,991.066772 58.666904,991.982422 57.703743,992.953003 
	C57.312534,992.289185 57.215000,991.570374 57.112373,990.487671 
z"/>
<path fill="#818285" opacity="1.000000" stroke="none" 
	d="
M354.966797,210.045242 
	C355.041962,211.063416 355.117096,212.081573 355.186859,213.946014 
	C355.208954,251.235260 355.227814,287.678253 355.292725,324.121155 
	C355.295563,325.725616 355.719727,327.329376 355.947632,328.933441 
	C355.681305,330.875488 355.185608,332.817200 355.182587,334.759674 
	C355.125427,371.533142 355.126465,408.306702 354.715332,445.568085 
	C352.608093,446.995514 350.900879,447.935120 349.133545,448.418701 
	C349.062897,368.653229 349.052338,289.343811 349.462250,209.973511 
	C351.577423,209.956848 353.272125,210.001053 354.966797,210.045242 
z"/>
<path fill="#808185" opacity="1.000000" stroke="none" 
	d="
M354.957336,470.059387 
	C355.019287,472.555725 355.135803,475.052032 355.135284,477.548370 
	C355.119690,553.375244 355.092621,629.202087 354.667847,705.531006 
	C352.542328,706.665710 350.816315,707.298279 349.062195,707.468079 
	C349.024506,674.682495 348.996185,642.359741 349.009674,610.036926 
	C349.029266,563.053589 349.078949,516.070251 349.486603,469.114380 
	C351.557404,469.447693 353.257355,469.753540 354.957336,470.059387 
z"/>
<path fill="#818386" opacity="1.000000" stroke="none" 
	d="
M354.967773,730.043701 
	C354.987915,753.134155 355.008057,776.224731 354.721436,800.055664 
	C354.769196,802.561768 355.123657,804.327576 355.398621,806.518555 
	C355.261108,807.807617 355.203156,808.671387 355.035614,809.526001 
	C354.926025,809.516785 354.816559,809.499329 354.816559,809.499329 
	C354.816559,809.499329 355.145874,809.508301 355.159973,810.007568 
	C355.161774,843.514099 355.149536,876.521423 355.022461,909.534058 
	C354.907623,909.539368 354.796173,909.495300 354.796173,909.495300 
	C354.796173,909.495300 355.137604,909.512756 355.165466,910.002197 
	C355.183685,910.818298 355.174072,911.144958 355.061920,911.462524 
	C354.959351,911.453369 354.854584,911.476074 354.854584,911.476074 
	C354.854584,911.476074 355.153564,911.464905 355.259705,911.667480 
	C355.365845,911.870056 355.657196,912.222656 355.647858,912.503479 
	C355.430359,914.237244 355.222168,915.690186 355.014038,917.143127 
	C355.049438,933.124268 355.084839,949.105469 354.719177,965.572083 
	C352.607300,966.997925 350.896454,967.938232 349.126953,968.422119 
	C349.059540,888.655273 349.050751,809.345032 349.462524,729.974487 
	C351.577972,729.957397 353.272888,730.000549 354.967773,730.043701 
z"/>
<path fill="#818285" opacity="1.000000" stroke="none" 
	d="
M354.938477,79.075516 
	C355.206177,83.858032 355.189362,88.401535 355.089539,93.391975 
	C355.011139,97.327995 355.015778,100.817070 354.516724,104.674324 
	C353.105652,103.441399 352.198303,101.840294 351.231293,100.133965 
	C350.285309,100.902466 349.600098,101.459129 348.739502,102.083382 
	C348.564117,102.150963 348.188599,102.133408 348.250366,101.657768 
	C348.220459,96.026115 348.151703,90.869576 348.031891,85.714218 
	C347.825256,76.824562 345.010529,74.005928 336.325836,74.006432 
	C304.016144,74.008316 271.706421,74.034775 239.396713,74.024765 
	C230.579315,74.022034 221.761948,73.923958 212.919342,73.455154 
	C212.963867,71.387405 213.033600,69.734146 213.103333,68.080894 
	C255.248550,68.060051 297.393768,68.032761 339.538971,68.024323 
	C347.129425,68.022804 351.941040,71.981468 354.938477,79.075516 
z"/>
<path fill="#2A2627" opacity="1.000000" stroke="none" 
	d="
M356.265381,328.820251 
	C355.719727,327.329376 355.295563,325.725616 355.292725,324.121155 
	C355.227814,287.678253 355.208954,251.235260 355.086975,214.316467 
	C359.554413,214.842224 361.889557,217.987686 362.791199,222.911560 
	C362.364410,225.385971 362.102570,227.186707 362.100739,228.987686 
	C362.071167,258.363708 362.109253,287.739868 361.990387,317.115417 
	C361.982666,319.023682 360.825287,320.927277 360.060974,323.266785 
	C360.112701,323.297821 360.808289,323.715088 361.503876,324.132355 
	C359.863617,325.657257 358.223389,327.182190 356.265381,328.820251 
z"/>
<path fill="#2A2627" opacity="1.000000" stroke="none" 
	d="
M355.657196,912.222656 
	C355.657196,912.222656 355.365845,911.870056 355.246704,911.668945 
	C355.127594,911.467773 355.164490,911.471619 355.164490,911.471619 
	C355.174072,911.144958 355.183685,910.818298 355.146545,910.005554 
	C355.099792,909.519531 355.137299,909.528687 355.137299,909.528687 
	C355.149536,876.521423 355.161774,843.514099 355.139771,810.013489 
	C355.105499,809.520142 355.145203,809.535217 355.145203,809.535217 
	C355.203156,808.671387 355.261108,807.807617 355.703979,806.476746 
	C357.701935,806.018433 359.314941,806.027100 360.927948,806.035767 
	C361.281219,806.489014 361.634491,806.942322 361.776062,807.946045 
	C361.735687,811.777161 362.051117,815.057617 362.055542,818.338501 
	C362.093414,846.288208 361.925293,874.239380 362.204010,902.186401 
	C362.257263,907.525757 361.004150,910.928894 355.657196,912.222656 
z"/>
<path fill="#3A3B3D" opacity="1.000000" stroke="none" 
	d="
M348.914856,102.015793 
	C349.600098,101.459129 350.285309,100.902466 351.231293,100.133965 
	C352.198303,101.840294 353.105652,103.441399 354.338440,105.117523 
	C354.693787,119.500000 354.723724,133.807449 354.463135,148.889404 
	C354.086273,156.250336 354.189240,162.847122 353.829620,169.418594 
	C353.662933,172.464569 353.928375,176.278992 349.290527,176.425812 
	C349.251984,163.134125 349.306763,150.301300 349.251587,137.468979 
	C349.200775,125.650986 349.031799,113.833496 348.914856,102.015793 
z"/>
<path fill="#3A3B3D" opacity="1.000000" stroke="none" 
	d="
M355.647858,912.503479 
	C361.004150,910.928894 362.257263,907.525757 362.204010,902.186401 
	C361.925293,874.239380 362.093414,846.288208 362.055542,818.338501 
	C362.051117,815.057617 361.735687,811.777161 361.815857,808.237427 
	C362.637268,810.676514 363.690582,813.372559 363.702850,816.073364 
	C363.834564,845.053772 363.786438,874.034973 363.826416,903.015930 
	C363.835083,909.307251 362.090668,914.499390 355.366821,917.105286 
	C355.222168,915.690186 355.430359,914.237244 355.647858,912.503479 
z"/>
<path fill="#3A3B3D" opacity="1.000000" stroke="none" 
	d="
M361.742096,323.878479 
	C360.808289,323.715088 360.112701,323.297821 360.060974,323.266785 
	C360.825287,320.927277 361.982666,319.023682 361.990387,317.115417 
	C362.109253,287.739868 362.071167,258.363708 362.100739,228.987686 
	C362.102570,227.186707 362.364410,225.385971 362.790405,223.280060 
	C363.300262,225.077972 363.716888,227.180588 363.720764,229.283951 
	C363.773041,257.680664 363.822357,286.077728 363.698059,314.473938 
	C363.684723,317.526611 362.579193,320.574524 361.742096,323.878479 
z"/>
<path fill="#818285" opacity="1.000000" stroke="none" 
	d="
M349.335907,176.884903 
	C353.928375,176.278992 353.662933,172.464569 353.829620,169.418594 
	C354.189240,162.847122 354.086273,156.250336 354.446228,149.360916 
	C355.064728,149.175049 355.409637,149.292175 355.903198,150.137634 
	C355.701782,158.670135 355.351624,166.474304 355.001465,174.278473 
	C355.025177,177.872955 355.048920,181.467438 354.682861,185.572601 
	C352.585083,187.017502 350.877106,187.951721 349.121246,188.433716 
	C349.160889,184.282654 349.248383,180.583771 349.335907,176.884903 
z"/>
<path fill="#3A3B3D" opacity="1.000000" stroke="none" 
	d="
M355.400116,174.210663 
	C355.351624,166.474304 355.701782,158.670135 356.027283,150.391632 
	C359.379303,149.349304 360.904663,150.840179 360.876923,154.197571 
	C360.840118,158.655014 360.650513,163.127533 360.941071,167.566437 
	C361.200348,171.528000 359.993317,173.885040 355.400116,174.210663 
z"/>
<path fill="#BCBDC1" opacity="1.000000" stroke="none" 
	d="
M354.986206,729.617432 
	C353.272888,730.000549 351.577972,729.957397 349.405151,729.515747 
	C348.974121,725.727356 349.021027,722.337463 349.415527,718.942688 
	C351.389069,718.181030 353.015015,717.424133 354.640930,716.667297 
	C354.762146,720.841919 354.883392,725.016479 354.986206,729.617432 
z"/>
<path fill="#BCBDC1" opacity="1.000000" stroke="none" 
	d="
M354.985413,209.618805 
	C353.272125,210.001053 351.577423,209.956848 349.404785,209.514862 
	C348.973907,205.727280 349.020935,202.337448 349.415558,198.942764 
	C351.389069,198.180984 353.015015,197.424072 354.640930,196.667175 
	C354.761932,200.842239 354.882965,205.017303 354.985413,209.618805 
z"/>
<path fill="#BCBDC1" opacity="1.000000" stroke="none" 
	d="
M354.978455,989.626099 
	C353.244507,989.803406 351.527283,989.553711 349.395020,988.734192 
	C349.041962,985.406311 349.103973,982.648254 349.448547,979.730591 
	C351.385986,978.615662 353.040894,977.660217 354.695770,976.704834 
	C354.795593,980.869568 354.895386,985.034302 354.978455,989.626099 
z"/>
<path fill="#BCBDC1" opacity="1.000000" stroke="none" 
	d="
M354.975555,469.631897 
	C353.257355,469.753540 351.557404,469.447693 349.424072,468.657593 
	C349.056946,465.408905 349.123199,462.644440 349.467102,459.715546 
	C351.394196,458.602295 353.043610,457.653473 354.693054,456.704651 
	C354.793274,460.871246 354.893524,465.037811 354.975555,469.631897 
z"/>
<path fill="#BCBDC1" opacity="1.000000" stroke="none" 
	d="
M349.090302,707.930847 
	C350.816315,707.298279 352.542328,706.665710 354.618042,705.994873 
	C354.965057,707.407776 354.962372,708.858948 354.657532,710.955078 
	C352.633118,712.440002 350.910889,713.280029 349.118805,713.681152 
	C349.062744,711.471863 349.076538,709.701355 349.090302,707.930847 
z"/>
<path fill="#BCBDC1" opacity="1.000000" stroke="none" 
	d="
M349.193604,448.874725 
	C350.900879,447.935120 352.608093,446.995514 354.662048,446.035278 
	C354.995209,447.445251 354.981628,448.875824 354.664978,450.942719 
	C352.646149,452.429413 350.930420,453.279755 349.142426,453.695435 
	C349.111298,451.798737 349.152466,450.336731 349.193604,448.874725 
z"/>
<path fill="#BCBDC1" opacity="1.000000" stroke="none" 
	d="
M349.185638,968.878601 
	C350.896454,967.938232 352.607300,966.997925 354.665710,966.039795 
	C354.999146,967.449768 354.984985,968.877502 354.668152,970.944946 
	C352.638947,972.429504 350.912445,973.274536 349.119385,973.685425 
	C349.097137,971.793762 349.141388,970.336182 349.185638,968.878601 
z"/>
<path fill="#BCBDC1" opacity="1.000000" stroke="none" 
	d="
M349.169128,188.885925 
	C350.877106,187.951721 352.585083,187.017502 354.633789,186.024658 
	C354.968994,187.414917 354.963470,188.863800 354.656219,190.957001 
	C352.632568,192.440765 350.910675,193.280228 349.118958,193.687012 
	C349.089142,191.798203 349.129150,190.342072 349.169128,188.885925 
z"/>
<path fill="#838488" opacity="1.000000" stroke="none" 
	d="
M349.214691,454.130127 
	C350.930420,453.279755 352.646149,452.429413 354.636078,451.371246 
	C354.883820,452.800842 354.857422,454.438202 354.762024,456.390137 
	C353.043610,457.653473 351.394196,458.602295 349.412109,459.307159 
	C349.124542,457.418854 349.169617,455.774475 349.214691,454.130127 
z"/>
<path fill="#838488" opacity="1.000000" stroke="none" 
	d="
M349.185913,974.119507 
	C350.912445,973.274536 352.638947,972.429504 354.638947,971.372681 
	C354.886902,972.799377 354.861420,974.437805 354.765839,976.390564 
	C353.040894,977.660217 351.385986,978.615662 349.398865,979.320312 
	C349.106384,977.419495 349.146149,975.769531 349.185913,974.119507 
z"/>
<path fill="#838488" opacity="1.000000" stroke="none" 
	d="
M349.188629,714.119995 
	C350.910889,713.280029 352.633118,712.440002 354.625793,711.388794 
	C354.883148,712.756104 354.870056,714.334595 354.748962,716.290161 
	C353.015015,717.424133 351.389069,718.181030 349.383606,718.540283 
	C349.065582,716.801758 349.127106,715.460876 349.188629,714.119995 
z"/>
<path fill="#838488" opacity="1.000000" stroke="none" 
	d="
M349.188751,194.119690 
	C350.910675,193.280228 352.632568,192.440765 354.624756,191.390244 
	C354.882324,192.757141 354.869629,194.335129 354.748932,196.290131 
	C353.015015,197.424072 351.389069,198.180984 349.383606,198.540283 
	C349.065613,196.801682 349.127167,195.460693 349.188751,194.119690 
z"/>
<path fill="#3A3B3D" opacity="1.000000" stroke="none" 
	d="
M360.839783,805.712158 
	C359.314941,806.027100 357.701935,806.018433 355.783539,806.051514 
	C355.123657,804.327576 354.769196,802.561768 354.583801,800.523193 
	C356.752472,801.963074 358.752045,803.675842 360.839783,805.712158 
z"/>
<path fill="#BCBDC1" opacity="1.000000" stroke="none" 
	d="
M212.632126,68.041748 
	C213.033600,69.734146 212.963867,71.387405 212.504211,73.571213 
	C207.773834,74.314857 203.433395,74.527946 199.092957,74.741035 
	C199.359787,72.760925 199.626633,70.780823 199.910812,68.426613 
	C204.005737,68.035873 208.083328,68.019241 212.632126,68.041748 
z"/>
<path fill="#FFFFFF" opacity="1.000000" stroke="none" 
	d="
M349.118958,193.687012 
	C349.127167,195.460693 349.065613,196.801682 349.036011,198.545166 
	C349.020935,202.337448 348.973907,205.727280 348.984314,209.575745 
	C349.052338,289.343811 349.062897,368.653229 349.133514,448.418701 
	C349.152466,450.336731 349.111298,451.798737 349.142426,453.695435 
	C349.169617,455.774475 349.124542,457.418854 349.134460,459.471588 
	C349.123199,462.644440 349.056946,465.408905 349.053253,468.630127 
	C349.078949,516.070251 349.029266,563.053589 349.009674,610.036926 
	C348.996185,642.359741 349.024506,674.682495 349.062195,707.468079 
	C349.076538,709.701355 349.062744,711.471863 349.118805,713.681152 
	C349.127106,715.460876 349.065582,716.801758 349.036011,718.545044 
	C349.021027,722.337463 348.974121,725.727356 348.984619,729.576050 
	C349.050751,809.345032 349.059540,888.655273 349.126953,968.422119 
	C349.141388,970.336182 349.097137,971.793762 349.119415,973.685425 
	C349.146149,975.769531 349.106384,977.419495 349.116302,979.479858 
	C349.103973,982.648254 349.041962,985.406311 349.039490,988.620239 
	C349.067261,1028.697632 349.038513,1068.318970 348.994080,1107.940430 
	C348.992035,1109.763550 349.112793,1111.643921 348.729065,1113.399902 
	C346.526184,1123.479980 343.208008,1125.997192 332.651947,1125.996704 
	C259.067688,1125.993286 185.483429,1126.001831 111.176300,1126.074829 
	C110.267662,1126.419922 110.081886,1126.696655 109.896133,1126.973389 
	C98.425957,1126.643188 86.942757,1126.525391 75.495300,1125.823975 
	C72.845924,1125.661743 70.318619,1123.506836 67.418968,1122.117920 
	C66.062439,1118.582031 65.022087,1115.197021 63.912300,1111.403564 
	C63.881779,1110.552124 63.920696,1110.108765 63.972900,1108.870972 
	C63.995670,1100.104980 64.024269,1092.133423 64.011238,1084.161987 
	C63.962112,1054.106079 63.899445,1024.050171 63.841850,993.994324 
	C63.885674,993.245789 63.929497,992.497253 63.918831,991.376465 
	C63.914745,966.359558 64.007828,941.714966 64.008575,917.070374 
	C64.013115,768.021667 63.996548,618.972961 63.916374,469.459747 
	C63.898003,437.194763 63.989990,405.394226 63.994289,373.593719 
	C64.003113,308.321686 63.964966,243.049667 63.840023,176.859634 
	C63.783241,151.952682 63.832588,127.963737 63.881935,103.974792 
	C63.881935,103.974792 64.347740,104.125191 64.762344,104.427139 
	C68.855949,106.486206 72.529900,109.765175 76.214668,109.777367 
	C163.110901,110.064987 250.008301,110.003471 336.905487,109.994408 
	C343.403015,109.993729 345.661530,108.378860 348.188599,102.133408 
	C348.188599,102.133408 348.564117,102.150963 348.739502,102.083374 
	C349.031799,113.833496 349.200775,125.650986 349.251587,137.468979 
	C349.306763,150.301300 349.251984,163.134125 349.290527,176.425812 
	C349.248383,180.583771 349.160889,184.282654 349.121246,188.433731 
	C349.129150,190.342072 349.089142,191.798203 349.118958,193.687012 
z"/>
<path fill="#3A3B3D" opacity="1.000000" stroke="none" 
	d="
M70.394394,1133.076904 
	C69.023865,1132.274536 68.051399,1131.495361 67.105515,1130.382324 
	C159.873184,1130.048706 252.614273,1130.048706 345.355377,1130.048706 
	C345.409424,1130.594727 345.463470,1131.140869 345.517517,1131.686890 
	C335.731903,1135.531616 325.312836,1135.668457 313.987183,1135.933594 
	C241.373520,1135.959351 169.687653,1135.980835 98.001793,1136.002441 
	C88.932007,1135.035034 79.862228,1134.067505 70.394394,1133.076904 
z"/>
<path fill="#838488" opacity="1.000000" stroke="none" 
	d="
M98.295456,1136.299438 
	C169.687653,1135.980835 241.373520,1135.959351 313.526001,1135.975464 
	C312.430664,1136.342041 310.868896,1136.957520 309.306671,1136.958618 
	C240.377502,1137.006470 171.448273,1137.002197 102.519058,1136.983154 
	C101.209045,1136.982788 99.899094,1136.731079 98.295456,1136.299438 
z"/>
<path fill="#838488" opacity="1.000000" stroke="none" 
	d="
M263.000000,1138.000000 
	C278.960083,1138.000000 294.420166,1138.000000 309.880249,1138.000000 
	C309.879211,1138.237549 309.878204,1138.475220 309.877197,1138.712769 
	C240.692810,1138.712769 171.508423,1138.712769 102.324043,1138.712769 
	C102.322815,1138.475220 102.321594,1138.237549 102.320366,1138.000000 
	C155.713577,1138.000000 209.106796,1138.000000 263.000000,1138.000000 
z"/>
<path fill="#797A7C" opacity="1.000000" stroke="none" 
	d="
M110.118240,1126.897949 
	C110.081886,1126.696655 110.267662,1126.419922 110.710258,1126.145264 
	C110.842209,1126.450317 110.633308,1126.675415 110.118240,1126.897949 
z"/>
<path fill="#000000" opacity="1.000000" stroke="none" 
	d="
M348.250366,101.657768 
	C345.661530,108.378860 343.403015,109.993729 336.905487,109.994408 
	C250.008301,110.003471 163.110901,110.064987 76.214668,109.777367 
	C72.529900,109.765175 68.855949,106.486206 65.007088,104.425171 
	C64.894386,97.307457 64.834084,90.490005 65.045456,83.680984 
	C65.218330,78.111862 69.419418,75.035210 76.817886,75.006439 
	C94.128525,74.939133 111.439728,75.015617 128.750397,74.952332 
	C151.884857,74.867737 175.019012,74.705971 198.623138,74.659195 
	C203.433395,74.527946 207.773834,74.314857 212.529419,73.985703 
	C221.761948,73.923958 230.579315,74.022034 239.396713,74.024765 
	C271.706421,74.034775 304.016144,74.008316 336.325836,74.006432 
	C345.010529,74.005928 347.825256,76.824562 348.031891,85.714218 
	C348.151703,90.869576 348.220459,96.026115 348.250366,101.657768 
z"/>
<path fill="#3A3B3D" opacity="1.000000" stroke="none" 
	d="
M63.567211,103.815826 
	C63.832588,127.963737 63.783241,151.952682 63.703072,176.399811 
	C58.616562,176.720520 59.179287,172.596146 59.056328,169.623016 
	C58.741226,162.003799 58.929077,154.363388 58.932102,146.731461 
	C58.937229,133.790314 58.863560,120.847885 59.044338,107.909088 
	C59.080479,105.322418 60.107231,102.749580 60.677216,100.170372 
	C61.168106,100.201149 61.658997,100.231926 62.149887,100.262711 
	C62.517422,101.394096 62.884956,102.525482 63.567211,103.815826 
z"/>
<path fill="#838488" opacity="1.000000" stroke="none" 
	d="
M63.429787,993.999268 
	C63.899445,1024.050171 63.962112,1054.106079 64.011238,1084.161987 
	C64.024269,1092.133423 63.995670,1100.104980 63.915810,1108.540771 
	C61.226738,1109.271729 59.945618,1108.454102 59.952221,1105.457520 
	C60.031624,1069.429932 59.976685,1033.401733 60.130924,997.374573 
	C60.135754,996.247009 62.013245,995.127441 63.429787,993.999268 
z"/>
<path fill="#808184" opacity="1.000000" stroke="none" 
	d="
M60.907677,1124.930664 
	C61.527733,1124.232544 62.069599,1123.845337 62.611481,1123.458252 
	C62.743671,1123.961670 63.128529,1124.583618 62.958851,1124.945435 
	C62.515579,1125.890869 61.829735,1126.722778 60.540195,1128.642700 
	C60.701939,1126.741211 60.765717,1125.991455 60.907677,1124.930664 
z"/>
<path fill="#3A3B3D" opacity="1.000000" stroke="none" 
	d="
M355.061920,911.462524 
	C355.164490,911.471619 355.127594,911.467773 355.140564,911.466309 
	C355.153564,911.464905 354.854584,911.476074 354.854584,911.476074 
	C354.854584,911.476074 354.959351,911.453369 355.061920,911.462524 
z"/>
<path fill="#3A3B3D" opacity="1.000000" stroke="none" 
	d="
M355.022461,909.534058 
	C355.137299,909.528687 355.099792,909.519531 355.118713,909.516113 
	C355.137604,909.512756 354.796173,909.495300 354.796173,909.495300 
	C354.796173,909.495300 354.907623,909.539368 355.022461,909.534058 
z"/>
<path fill="#3A3B3D" opacity="1.000000" stroke="none" 
	d="
M355.035614,809.526001 
	C355.145203,809.535217 355.105499,809.520142 355.125671,809.514221 
	C355.145874,809.508301 354.816559,809.499329 354.816559,809.499329 
	C354.816559,809.499329 354.926025,809.516785 355.035614,809.526001 
z"/>
</svg>